<svg xmlns="http://www.w3.org/2000/svg" xmlns:xlink="http://www.w3.org/1999/xlink" width="955.953" height="639.224" data-name="Layer 1" viewBox="0 0 955.953 639.224"><rect width="703.576" height="450.601" x=".3" y=".399" fill="#e6e6e6" style="--darkreader-inline-fill:#26292b"/><rect width="663.339" height="171.773" x="20.419" y="56.915" fill="#fff" style="--darkreader-inline-fill:#181a1b"/><rect width="140.281" height="8.053" x="185.418" y="81.727" fill="#e6e6e6" style="--darkreader-inline-fill:#26292b"/><rect width="216.625" height="8.053" x="185.418" y="111.101" fill="#0393fb" style="--darkreader-inline-fill:#0276c9"/><rect width="176.544" height="8.053" x="185.418" y="138.776" fill="#e6e6e6" style="--darkreader-inline-fill:#26292b"/><rect width="103.064" height="8.053" x="185.418" y="166.346" fill="#e6e6e6" style="--darkreader-inline-fill:#26292b"/><rect width="155.55" height="8.053" x="185.418" y="193.916" fill="#e6e6e6" style="--darkreader-inline-fill:#26292b"/><rect width="17.177" height="17.177" x="121.481" y="78.864" fill="#e6e6e6" style="--darkreader-inline-fill:#d8d5d0"/><rect width="17.177" height="17.177" x="121.481" y="106.539" fill="#0393fb" style="--darkreader-inline-fill:#36aafd"/><rect width="17.177" height="17.177" x="121.481" y="134.213" fill="#e6e6e6" style="--darkreader-inline-fill:#d8d5d0"/><rect width="17.177" height="17.177" x="121.481" y="161.888" fill="#e6e6e6" style="--darkreader-inline-fill:#d8d5d0"/><rect width="17.177" height="17.177" x="121.481" y="189.562" fill="#e6e6e6" style="--darkreader-inline-fill:#d8d5d0"/><rect width="57.258" height="57.258" x="533.736" y="117.99" fill="#e6e6e6" style="--darkreader-inline-fill:#d8d5d0"/><rect width="663.339" height="171.773" x="20.419" y="252.546" fill="#fff" style="--darkreader-inline-fill:#181a1b"/><rect width="17.177" height="17.177" x="151.064" y="267.812" fill="#e6e6e6" style="--darkreader-inline-fill:#d8d5d0"/><rect width="17.177" height="17.177" x="121.481" y="267.812" fill="#0393fb" style="--darkreader-inline-fill:#36aafd"/><path fill="#e6e6e6" d="M534.74755,435.76326a65.04556,65.04556,0,0,0-105.003-9.69992l-4.18616-3.65793a70.59368,70.59368,0,0,1,113.973,10.52622Z" transform="translate(-122.02369 -130.38786)" style="--darkreader-inline-fill:#26292b"/><path fill="#0393fb" d="M537.36724,508.18169l-4.6134-3.102a65.07765,65.07765,0,0,0,1.99371-69.31644l4.78387-2.83166a70.63742,70.63742,0,0,1-2.16418,75.25012Z" transform="translate(-122.02369 -130.38786)" style="--darkreader-inline-fill:#36aafd"/><path fill="#0393fb" d="M426.13766,515.92644a70.58952,70.58952,0,0,1-.57926-93.52106l4.18616,3.65793a65.03087,65.03087,0,0,0,.53366,86.15415Z" transform="translate(-122.02369 -130.38786)" style="--darkreader-inline-fill:#36aafd"/><path fill="#0393fb" d="M478.73772,539.44023a70.70869,70.70869,0,0,1-52.6-23.51382l4.14056-3.709a65.04339,65.04339,0,0,0,102.47562-7.13779l4.6134,3.102A70.55387,70.55387,0,0,1,478.73772,539.44023Z" transform="translate(-122.02369 -130.38786)" style="--darkreader-inline-fill:#0276c9"/><rect width="57.258" height="57.258" x="533.736" y="305.032" fill="#e6e6e6" style="--darkreader-inline-fill:#d8d5d0"/><rect width="57.258" height="57.258" x="119.095" y="342.249" fill="#e6e6e6" style="--darkreader-inline-fill:#d8d5d0"/><rect width="703.576" height="29.89" fill="#0393fb" style="--darkreader-inline-fill:#0276c9"/><circle cx="22.212" cy="15.282" r="5.54" fill="#fff" style="--darkreader-inline-fill:#e8e6e3"/><circle cx="43.241" cy="15.282" r="5.54" fill="#fff" style="--darkreader-inline-fill:#e8e6e3"/><circle cx="64.269" cy="15.282" r="5.54" fill="#fff" style="--darkreader-inline-fill:#e8e6e3"/><polygon fill="#ffb8b8" points="817.168 623.704 831.411 623.704 838.188 568.764 817.165 568.765 817.168 623.704" style="--darkreader-inline-fill:#ff9a9a"/><path fill="#2f2e41" d="M935.5583,749.44184l28.05079-.00113h.00113a17.87713,17.87713,0,0,1,17.87616,17.87587v.5809l-45.92723.00171Z" transform="translate(-122.02369 -130.38786)" style="--darkreader-inline-fill:#c5c0b8"/><polygon fill="#ffb8b8" points="781.694 569.766 792.205 579.379 834.284 543.411 818.771 529.224 781.694 569.766" style="--darkreader-inline-fill:#ff9a9a"/><path fill="#2f2e41" d="M904.17525,694.2705,924.875,713.201l.00084.00077a17.87711,17.87711,0,0,1,1.12667,25.25538l-.392.42866L891.71907,707.891Z" transform="translate(-122.02369 -130.38786)" style="--darkreader-inline-fill:#c5c0b8"/><polygon fill="#2f2e41" points="839.555 430.772 835.518 511.511 845.611 599.316 815.333 603.353 796.158 492.336 790.102 416.642 839.555 430.772" style="--darkreader-inline-fill:#262534"/><path fill="#2f2e41" d="M1009.01348,531.89159s12.111,79.73029-13.12018,105.97064-59.54541,72.66559-59.54541,72.66559L912.126,680.25048l61.5639-65.60089-12.111-44.40668-49.453-23.21265,8.074-55.50842,72.66559-1.00925Z" transform="translate(-122.02369 -130.38786)" style="--darkreader-inline-fill:#262534"/><circle cx="831.415" cy="192.095" r="24.717" fill="#ffb8b8" style="--darkreader-inline-fill:#ff9a9a"/><polygon fill="#ccc" points="851.917 227.224 855.703 232.96 865.796 261.219 857.722 371.226 810.287 372.236 804.232 246.08 816.917 230.224 851.917 227.224" style="--darkreader-inline-fill:#35393b"/><path fill="#2f2e41" d="M907.07976,379.49569l-8.074-1.00925s-2.01849,1.00925-3.02771,8.07394-13.12018,69.63785-13.12018,69.63785l16.14789,76.70258,18.16638-24.22187L906.07055,466.2907l11.10168-42.38828Z" transform="translate(-122.02369 -130.38786)" style="--darkreader-inline-fill:#262534"/><polygon fill="#2f2e41" points="887.999 248.099 894.054 248.099 909.193 329.847 895.064 393.43 880.934 370.217 884.971 344.986 882.953 322.783 875.888 309.662 887.999 248.099" style="--darkreader-inline-fill:#262534"/><path fill="#2f2e41" d="M968.045,322.48242l-4.49409-1.12353s-3.37053-19.09984-11.23522-16.8528-28.088,4.49409-28.088-4.49409,19.09985-16.8528,30.335-15.72928,25.58427,4.85076,29.21152,21.34686c5.81465,26.444-11.997,33.12341-11.997,33.12341l.29641-.96282a14.9957,14.9957,0,0,0-4.02865-15.30775Z" transform="translate(-122.02369 -130.38786)" style="--darkreader-inline-fill:#c5c0b8"/><path fill="#2f2e41" d="M900.01507,378.48644l32.29583-13.12018,7.56934-5.55084,22.708,100.4198,15.13867-45.416-4.54163-58.03155,41.88361,21.69876-14.12939,68.6286-2.0185,26.24036,6.05548,21.19412s21.19409,15.13867,14.1294,31.28656-15.13867,17.15716-15.13867,17.15716-34.31434-32.2958-36.33277-40.36978-5.0462-22.20337-5.0462-22.20337-17.15717,64.59165-37.342,63.58237-20.18488-22.20337-20.18488-22.20337l5.04621-22.20337,8.074-23.21261-4.037-38.35129Z" transform="translate(-122.02369 -130.38786)" style="--darkreader-inline-fill:#262534"/><path fill="#ccc" d="M1076.97631,769.61214h-268a1,1,0,0,1,0-2h268a1,1,0,0,1,0,2Z" transform="translate(-122.02369 -130.38786)" style="--darkreader-inline-fill:#35393b"/></svg>